<svg xmlns="http://www.w3.org/2000/svg" width="297.254" height="31.22" viewBox="0 0 297.254 31.22">
  <g id="Group_36" data-name="Group 36" transform="translate(-126.5 -361.325)">
    <path id="Subtraction_1" data-name="Subtraction 1" d="M15.61,31.22A15.614,15.614,0,0,1,9.534,1.227,15.614,15.614,0,0,1,21.685,29.993,15.512,15.512,0,0,1,15.61,31.22ZM18.138,7.639c-.155,0-.217.087-.316.331L12.149,22.723a.638.638,0,0,0-.079.268c0,.135.143.214.268.268l1.1.426a.608.608,0,0,0,.205.047c.143,0,.205-.1.283-.3l5.659-14.88a.424.424,0,0,0,.047-.189c0-.17-.151-.234-.261-.281l-.007,0L18.374,7.7A.664.664,0,0,0,18.138,7.639Zm1.653,3.578v2.175l5.186,2.333-5.186,2.269V20.17L27.672,16.7V14.747ZM11.914,11.2,4.049,14.747V16.7l7.865,3.467V17.994L6.745,15.725l5.169-2.333Z" transform="translate(126.5 361.325)" fill="#1d1e20"/>
    <path id="Path_29" data-name="Path 29" d="M6.649,0,.519-21.091H6.146L9.334-7.275h.173l3.633-13.816h4.6L21.371-7.242h.173l3.188-13.849h5.627L24.23,0H19.32l-3.8-12.786h-.165L11.559,0ZM32.477,0V-21.091H47.183v4.144H37.568v4.325h8.857v4.144H37.568v4.334h9.615V0Zm17.9,0V-21.091H59.17a10.3,10.3,0,0,1,3.969.67,5.261,5.261,0,0,1,2.412,1.872,4.877,4.877,0,0,1,.812,2.8,4.485,4.485,0,0,1-.5,2.146,4.4,4.4,0,0,1-1.392,1.561,5.584,5.584,0,0,1-2.05.865v.206a5.062,5.062,0,0,1,2.367.684,4.8,4.8,0,0,1,1.745,1.747A5.108,5.108,0,0,1,67.186-5.9a5.449,5.449,0,0,1-.865,3.034,5.843,5.843,0,0,1-2.5,2.1A9.325,9.325,0,0,1,59.845,0Zm5.091-4.111h3.155a3.9,3.9,0,0,0,2.442-.627,2.115,2.115,0,0,0,.788-1.754,2.54,2.54,0,0,0-.381-1.4,2.491,2.491,0,0,0-1.081-.919,3.963,3.963,0,0,0-1.677-.324H55.471Zm0-8.3H58.3a3.7,3.7,0,0,0,1.48-.28,2.358,2.358,0,0,0,1.018-.8,2.135,2.135,0,0,0,.37-1.265,2.035,2.035,0,0,0-.754-1.672,3.133,3.133,0,0,0-2.031-.611H55.471ZM83.68,0H75.886V-21.091h7.786a11.523,11.523,0,0,1,5.553,1.262,8.7,8.7,0,0,1,3.6,3.623,11.8,11.8,0,0,1,1.267,5.653,11.853,11.853,0,0,1-1.265,5.661,8.7,8.7,0,0,1-3.6,3.629A11.5,11.5,0,0,1,83.68,0Zm-2.7-4.342h2.5a6.756,6.756,0,0,0,3.005-.606,3.974,3.974,0,0,0,1.864-1.967,8.721,8.721,0,0,0,.634-3.639,8.614,8.614,0,0,0-.641-3.632,3.977,3.977,0,0,0-1.883-1.961,6.963,6.963,0,0,0-3.054-.6h-2.43ZM97.059,0V-21.091h14.706v4.144h-9.615v4.325h8.857v4.144h-8.857v4.334h9.615V0Zm29.3-14.764a2.416,2.416,0,0,0-.915-1.771,3.672,3.672,0,0,0-2.307-.634,4.519,4.519,0,0,0-1.647.26,2.187,2.187,0,0,0-.989.706,1.713,1.713,0,0,0-.339,1.019,1.539,1.539,0,0,0,.193.837,1.931,1.931,0,0,0,.617.636,4.5,4.5,0,0,0,.985.48,10.176,10.176,0,0,0,1.3.361l1.813.412a13.033,13.033,0,0,1,2.765.9,7.482,7.482,0,0,1,2.021,1.348A5.27,5.27,0,0,1,131.1-8.4a6.011,6.011,0,0,1,.43,2.28,5.876,5.876,0,0,1-1.01,3.436,6.31,6.31,0,0,1-2.871,2.194,11.873,11.873,0,0,1-4.5.764,12.246,12.246,0,0,1-4.619-.8,6.541,6.541,0,0,1-3.057-2.414,7.324,7.324,0,0,1-1.124-4.08h4.877a3.193,3.193,0,0,0,.549,1.7,2.983,2.983,0,0,0,1.335,1.03,5.178,5.178,0,0,0,1.972.347,4.932,4.932,0,0,0,1.753-.277,2.54,2.54,0,0,0,1.118-.77,1.816,1.816,0,0,0,.4-1.136,1.561,1.561,0,0,0-.369-1.022,2.935,2.935,0,0,0-1.1-.741,11.59,11.59,0,0,0-1.905-.585l-2.2-.511a9.6,9.6,0,0,1-4.313-2.033,4.818,4.818,0,0,1-1.57-3.808,5.67,5.67,0,0,1,1.054-3.432,6.986,6.986,0,0,1,2.933-2.294,10.529,10.529,0,0,1,4.277-.823,10.141,10.141,0,0,1,4.259.829,6.58,6.58,0,0,1,2.806,2.32,6.193,6.193,0,0,1,1.016,3.466Zm12.844-6.327V0h-5.091V-21.091ZM156.246-14.2a3.76,3.76,0,0,0-.516-1.144,3.38,3.38,0,0,0-.834-.852,3.636,3.636,0,0,0-1.134-.534,5.147,5.147,0,0,0-1.4-.181,4.66,4.66,0,0,0-2.647.746,4.764,4.764,0,0,0-1.724,2.161,8.7,8.7,0,0,0-.606,3.429,9.123,9.123,0,0,0,.587,3.462,4.71,4.71,0,0,0,1.7,2.185,4.681,4.681,0,0,0,2.69.754,5.545,5.545,0,0,0,2.382-.46,3.3,3.3,0,0,0,1.475-1.306,3.83,3.83,0,0,0,.5-1.991l.947.115h-5.124v-3.716h9.087v2.793a9.342,9.342,0,0,1-1.2,4.848,8.028,8.028,0,0,1-3.3,3.1,10.354,10.354,0,0,1-4.808,1.08,10.487,10.487,0,0,1-5.309-1.31,9.082,9.082,0,0,1-3.563-3.732,12.182,12.182,0,0,1-1.278-5.759,12.8,12.8,0,0,1,.773-4.608,9.742,9.742,0,0,1,2.157-3.414,9.265,9.265,0,0,1,3.213-2.121,10.621,10.621,0,0,1,3.94-.723,10.764,10.764,0,0,1,3.412.524,9.132,9.132,0,0,1,2.8,1.485,7.95,7.95,0,0,1,1.982,2.276A7.483,7.483,0,0,1,161.4-14.2Zm26.339-6.887V0h-4.317l-8.4-12.177h-.14V0h-5.091V-21.091h4.383l8.3,12.152h.173V-21.091ZM193.476,0V-21.091h11.768V-19.9H194.767v8.747h9.5v1.195h-9.5V0Zm16.985,0V-21.091H222.2V-19.9H211.752v8.747h9.818v1.195h-9.818v8.76h10.7V0Zm17.068,0V-21.091h11.74V-19.9H228.82v8.747h9.818v1.195H228.82v8.76h10.7V0Zm22.917,0H244.6V-21.091h6.3a9.764,9.764,0,0,1,5.077,1.255,8.2,8.2,0,0,1,3.237,3.6,12.82,12.82,0,0,1,1.119,5.624A12.944,12.944,0,0,1,259.162-4.9a8.267,8.267,0,0,1-3.371,3.635A10.609,10.609,0,0,1,250.446,0Zm-4.559-1.195h4.5a9.321,9.321,0,0,0,4.761-1.129,7.184,7.184,0,0,0,2.932-3.241,11.721,11.721,0,0,0,.985-5.05,11.94,11.94,0,0,0-.961-4.983,7.073,7.073,0,0,0-2.784-3.189,8.484,8.484,0,0,0-4.48-1.111h-4.957Z" transform="translate(163.421 387)" fill="#1d1e20"/>
  </g>
</svg>
